<svg width="284" height="59" viewBox="0 0 284 59" fill="none" xmlns="http://www.w3.org/2000/svg">
<g clip-path="url(#clip0_998_5521)">
<path d="M37.5823 36.6824L35.2847 35.3935L30.208 44.5112L18.1677 47.6032C12.8304 48.9713 7.37477 45.7369 6.00888 40.3912L0.31635 18.1385C-1.05744 12.7928 2.17175 7.32844 7.50899 5.96038L28.1316 0.662109L23.1101 9.71662L9.37228 13.2356C8.04587 13.5836 7.24055 14.9437 7.58005 16.2722L13.2726 38.525C13.62 39.8535 14.978 40.6601 16.3044 40.3201L25.2261 38.0347L28.7395 31.7321L26.442 30.4431L35.1268 27.9838L37.5823 36.6824Z" fill="#5235E8"/>
<path d="M28.1306 0.662109L23.1092 9.71662L9.3713 13.2356C8.04489 13.5836 7.23957 14.9437 7.57907 16.2722L13.2716 38.525C13.619 39.8535 14.977 40.6601 16.3034 40.3201L25.2251 38.0347L28.7385 31.7321L26.441 30.4431L35.1258 27.9838L28.2806 40.3991L16.5718 43.3883C13.7769 44.1 10.9188 42.4394 10.1529 39.6558L3.86826 16.7783C3.10242 13.9869 4.71306 11.0926 7.48432 10.2781L22.2486 5.92875L28.1306 0.662109Z" fill="url(#paint0_linear_998_5521)"/>
<path d="M42.5401 53.6997L21.9175 58.998L26.9468 49.9514L40.6768 46.4245C42.0032 46.0844 42.8085 44.7243 42.469 43.3878L36.7765 21.1351C36.437 19.8066 35.0711 19 33.7447 19.34L24.823 21.6333L21.3174 27.9359L23.6071 29.2169L14.9222 31.6763L12.4668 22.9776L14.7643 24.2666L19.8489 15.1488L31.8814 12.0569C37.2186 10.6888 42.6743 13.9231 44.0402 19.2688L49.7406 41.5216C51.1065 46.8673 47.8773 52.3316 42.5401 53.6997Z" fill="#341EA6"/>
<path d="M21.9406 58.9982L26.962 49.9437L40.6998 46.4247C42.0263 46.0768 42.8316 44.7166 42.4921 43.3881L36.7996 21.1354C36.4522 19.8069 35.0942 19.0003 33.7678 19.3403L24.846 21.6257L21.3326 27.9282L23.6302 29.2172L14.9453 31.6766L21.7906 19.2612L33.4993 16.272C36.2943 15.5603 39.1524 17.221 39.9182 20.0046L46.2029 42.882C46.9687 45.6735 45.3581 48.5678 42.5868 49.3823L27.8226 53.7316L21.9406 58.9903V58.9982Z" fill="url(#paint1_linear_998_5521)"/>
</g>
<path d="M274.349 45.0551C272.245 45.0551 270.432 44.653 268.909 43.849C267.395 43.0364 266.228 41.8731 265.406 40.3591C264.594 38.8365 264.188 37.0146 264.188 34.8933C264.188 32.8575 264.598 31.0783 265.419 29.5557C266.24 28.0332 267.399 26.8485 268.896 26.0017C270.393 25.1549 272.16 24.7314 274.195 24.7314C275.684 24.7314 277.031 24.9624 278.237 25.4243C279.443 25.8862 280.474 26.5577 281.329 27.4387C282.185 28.3112 282.843 29.3718 283.305 30.6207C283.767 31.8695 283.998 33.2766 283.998 34.8419V36.4842H266.394V32.5838H277.48C277.471 32.0192 277.326 31.5231 277.044 31.0954C276.77 30.6592 276.398 30.3213 275.927 30.0818C275.466 29.8337 274.94 29.7097 274.349 29.7097C273.776 29.7097 273.25 29.8337 272.771 30.0818C272.292 30.3213 271.907 30.6549 271.616 31.0826C271.334 31.5103 271.184 32.0107 271.167 32.5838V36.7922C271.167 37.4252 271.3 37.9897 271.565 38.4858C271.83 38.9819 272.211 39.3711 272.707 39.6534C273.203 39.9357 273.802 40.0768 274.503 40.0768C274.991 40.0768 275.436 40.0084 275.838 39.8715C276.248 39.7347 276.599 39.5379 276.89 39.2813C277.181 39.0161 277.394 38.6997 277.531 38.3319H283.998C283.775 39.7004 283.249 40.8894 282.42 41.8987C281.59 42.8995 280.491 43.6779 279.122 44.2339C277.762 44.7813 276.171 45.0551 274.349 45.0551Z" fill="#09091E"/>
<path d="M252.49 45.0551C250.352 45.0551 248.522 44.6317 246.999 43.7848C245.476 42.9295 244.309 41.7405 243.496 40.2179C242.684 38.6868 242.277 36.9119 242.277 34.8933C242.277 32.8746 242.684 31.104 243.496 29.5814C244.309 28.0503 245.476 26.8613 246.999 26.0145C248.522 25.1591 250.352 24.7314 252.49 24.7314C254.424 24.7314 256.096 25.0821 257.507 25.7836C258.927 26.4764 260.026 27.4601 260.805 28.7346C261.583 30.0005 261.977 31.4889 261.985 33.1996H255.416C255.322 32.1646 255.022 31.3777 254.518 30.8388C254.022 30.2914 253.38 30.0176 252.593 30.0176C251.977 30.0176 251.438 30.1973 250.976 30.5565C250.515 30.9072 250.155 31.4418 249.899 32.1603C249.642 32.8703 249.514 33.7642 249.514 34.8419C249.514 35.9197 249.642 36.8178 249.899 37.5364C250.155 38.2463 250.515 38.7809 250.976 39.1402C251.438 39.4909 251.977 39.6662 252.593 39.6662C253.115 39.6662 253.577 39.5465 253.979 39.307C254.381 39.0589 254.706 38.6997 254.954 38.2292C255.211 37.7502 255.365 37.1685 255.416 36.4842H261.985C261.959 38.2207 261.562 39.7347 260.792 41.0263C260.022 42.3093 258.931 43.3016 257.52 44.003C256.117 44.7044 254.441 45.0551 252.49 45.0551Z" fill="#09091E"/>
<path d="M226.721 33.6102V44.6958H219.639V24.9881H226.362V28.7346H226.567C226.995 27.4857 227.748 26.5063 228.825 25.7964C229.912 25.0864 231.178 24.7314 232.623 24.7314C234.017 24.7314 235.228 25.0522 236.254 25.6937C237.289 26.3267 238.089 27.1992 238.654 28.3112C239.227 29.4232 239.509 30.6934 239.5 32.1219V44.6958H232.418V33.6102C232.426 32.6351 232.178 31.8695 231.674 31.3135C231.178 30.7575 230.485 30.4795 229.595 30.4795C229.014 30.4795 228.505 30.6078 228.068 30.8645C227.641 31.1125 227.311 31.4718 227.08 31.9422C226.849 32.4041 226.73 32.9601 226.721 33.6102Z" fill="#09091E"/>
<path d="M203.782 45.0037C202.525 45.0037 201.413 44.7985 200.447 44.3879C199.489 43.9687 198.736 43.3358 198.188 42.489C197.641 41.6421 197.367 40.5644 197.367 39.2557C197.367 38.1779 197.551 37.2584 197.919 36.4971C198.287 35.7272 198.8 35.0985 199.459 34.611C200.117 34.1234 200.883 33.7513 201.755 33.4947C202.636 33.2381 203.586 33.0713 204.604 32.9943C205.707 32.9088 206.592 32.8062 207.26 32.6864C207.935 32.5581 208.423 32.3827 208.722 32.1603C209.022 31.9294 209.171 31.6257 209.171 31.2494V31.1981C209.171 30.6848 208.975 30.2914 208.581 30.0176C208.188 29.7439 207.683 29.6071 207.067 29.6071C206.391 29.6071 205.84 29.7568 205.412 30.0561C204.993 30.347 204.74 30.796 204.655 31.4033H198.137C198.223 30.2058 198.603 29.1024 199.279 28.0931C199.963 27.0752 200.96 26.2626 202.268 25.6552C203.577 25.0394 205.211 24.7314 207.17 24.7314C208.581 24.7314 209.847 24.8982 210.968 25.2318C212.088 25.5569 213.042 26.0145 213.829 26.6047C214.616 27.1864 215.215 27.8707 215.625 28.6576C216.044 29.436 216.254 30.2828 216.254 31.1981V44.6958H209.633V41.9244H209.479C209.086 42.66 208.607 43.2545 208.042 43.7079C207.486 44.1612 206.849 44.4905 206.13 44.6958C205.421 44.9011 204.638 45.0037 203.782 45.0037ZM206.092 40.5387C206.631 40.5387 207.136 40.4275 207.606 40.2051C208.085 39.9827 208.474 39.662 208.774 39.2428C209.073 38.8237 209.223 38.3147 209.223 37.716V36.0737C209.034 36.1507 208.833 36.2234 208.62 36.2918C208.414 36.3602 208.192 36.4244 207.952 36.4842C207.721 36.5441 207.473 36.5997 207.208 36.651C206.952 36.7024 206.682 36.7494 206.4 36.7922C205.852 36.8777 205.403 37.0189 205.053 37.2156C204.711 37.4038 204.454 37.639 204.283 37.9213C204.12 38.195 204.039 38.5029 204.039 38.8451C204.039 39.3925 204.232 39.8116 204.616 40.1025C205.001 40.3933 205.493 40.5387 206.092 40.5387Z" fill="#09091E"/>
<path d="M182.014 33.6103V44.696H174.932V18.4189H181.757V28.7347H181.963C182.408 27.4773 183.147 26.4979 184.182 25.7965C185.217 25.0866 186.462 24.7316 187.916 24.7316C189.31 24.7316 190.521 25.0481 191.547 25.681C192.582 26.314 193.382 27.1865 193.947 28.2985C194.52 29.4105 194.802 30.685 194.793 32.122V44.696H187.711V33.6103C187.719 32.6352 187.476 31.8697 186.98 31.3137C186.492 30.7577 185.795 30.4797 184.888 30.4797C184.315 30.4797 183.81 30.608 183.374 30.8646C182.946 31.1127 182.613 31.4719 182.373 31.9424C182.142 32.4043 182.023 32.9603 182.014 33.6103Z" fill="#09091E"/>
<path d="M171.596 28.2727H164.359C164.308 27.6739 164.171 27.1308 163.949 26.6432C163.735 26.1557 163.435 25.7365 163.05 25.3858C162.674 25.0266 162.216 24.7528 161.678 24.5647C161.139 24.3679 160.527 24.2696 159.843 24.2696C158.645 24.2696 157.632 24.5604 156.802 25.142C155.981 25.7237 155.356 26.5577 154.929 27.644C154.51 28.7303 154.3 30.0348 154.3 31.5573C154.3 33.1654 154.514 34.5126 154.942 35.599C155.378 36.6767 156.006 37.4893 156.828 38.0368C157.649 38.5756 158.637 38.8451 159.792 38.8451C160.45 38.8451 161.04 38.7638 161.562 38.6013C162.084 38.4302 162.537 38.1865 162.922 37.87C163.307 37.5535 163.619 37.1728 163.859 36.728C164.107 36.2747 164.274 35.7658 164.359 35.2012L171.596 35.2525C171.51 36.3645 171.198 37.4979 170.659 38.6526C170.12 39.7988 169.355 40.8595 168.362 41.8346C167.379 42.8012 166.16 43.5796 164.706 44.1698C163.251 44.76 161.562 45.0551 159.638 45.0551C157.225 45.0551 155.061 44.5376 153.145 43.5026C151.238 42.4676 149.728 40.945 148.616 38.9349C147.513 36.9248 146.961 34.4656 146.961 31.5573C146.961 28.632 147.525 26.1685 148.655 24.1669C149.784 22.1568 151.306 20.6385 153.222 19.6121C155.138 18.5771 157.277 18.0596 159.638 18.0596C161.297 18.0596 162.824 18.2862 164.218 18.7396C165.612 19.1929 166.835 19.8558 167.888 20.7283C168.94 21.5923 169.787 22.6572 170.428 23.9231C171.07 25.1891 171.459 26.6389 171.596 28.2727Z" fill="#09091E"/>
<path d="M130.889 33.6102V44.6958H123.807V24.9881H130.53V28.7346H130.735C131.163 27.4857 131.916 26.5063 132.993 25.7964C134.08 25.0864 135.346 24.7314 136.791 24.7314C138.185 24.7314 139.396 25.0522 140.422 25.6937C141.457 26.3267 142.257 27.1992 142.822 28.3112C143.395 29.4232 143.677 30.6934 143.668 32.1219V44.6958H136.586V33.6102C136.594 32.6351 136.346 31.8695 135.842 31.3135C135.346 30.7575 134.653 30.4795 133.763 30.4795C133.182 30.4795 132.673 30.6078 132.236 30.8645C131.809 31.1125 131.479 31.4718 131.248 31.9422C131.017 32.4041 130.898 32.9601 130.889 33.6102Z" fill="#09091E"/>
<path d="M113.119 44.696V24.9882H120.202V44.696H113.119ZM116.66 22.9354C115.702 22.9354 114.881 22.6189 114.197 21.9859C113.513 21.3529 113.17 20.5916 113.17 19.7021C113.17 18.8125 113.513 18.0512 114.197 17.4182C114.881 16.7852 115.702 16.4688 116.66 16.4688C117.627 16.4688 118.448 16.7852 119.124 17.4182C119.808 18.0512 120.15 18.8125 120.15 19.7021C120.15 20.5916 119.808 21.3529 119.124 21.9859C118.448 22.6189 117.627 22.9354 116.66 22.9354Z" fill="#09091E"/>
<path d="M100.03 45.0551C97.8911 45.0551 96.0606 44.6317 94.5381 43.7848C93.0155 42.9295 91.8479 41.7405 91.0353 40.2179C90.2227 38.6868 89.8164 36.9119 89.8164 34.8933C89.8164 32.8746 90.2227 31.104 91.0353 29.5814C91.8479 28.0503 93.0155 26.8613 94.5381 26.0145C96.0606 25.1591 97.8911 24.7314 100.03 24.7314C102.168 24.7314 103.998 25.1591 105.521 26.0145C107.044 26.8613 108.211 28.0503 109.024 29.5814C109.836 31.104 110.243 32.8746 110.243 34.8933C110.243 36.9119 109.836 38.6868 109.024 40.2179C108.211 41.7405 107.044 42.9295 105.521 43.7848C103.998 44.6317 102.168 45.0551 100.03 45.0551ZM100.081 39.8202C100.68 39.8202 101.197 39.6192 101.633 39.2172C102.07 38.8151 102.407 38.242 102.647 37.4979C102.886 36.7537 103.006 35.8684 103.006 34.8419C103.006 33.8069 102.886 32.9216 102.647 32.186C102.407 31.4418 102.07 30.8687 101.633 30.4667C101.197 30.0647 100.68 29.8637 100.081 29.8637C99.4479 29.8637 98.9047 30.0647 98.4514 30.4667C97.998 30.8687 97.6516 31.4418 97.4121 32.186C97.1726 32.9216 97.0528 33.8069 97.0528 34.8419C97.0528 35.8684 97.1726 36.7537 97.4121 37.4979C97.6516 38.242 97.998 38.8151 98.4514 39.2172C98.9047 39.6192 99.4479 39.8202 100.081 39.8202Z" fill="#09091E"/>
<path d="M87.1952 28.2727H79.9588C79.9075 27.6739 79.7706 27.1308 79.5482 26.6432C79.3344 26.1557 79.035 25.7365 78.6501 25.3858C78.2737 25.0266 77.8161 24.7528 77.2772 24.5647C76.7383 24.3679 76.1267 24.2696 75.4424 24.2696C74.2449 24.2696 73.2313 24.5604 72.4016 25.142C71.5804 25.7237 70.956 26.5577 70.5283 27.644C70.1092 28.7303 69.8996 30.0348 69.8996 31.5573C69.8996 33.1654 70.1135 34.5126 70.5412 35.599C70.9774 36.6767 71.6061 37.4893 72.4273 38.0368C73.2484 38.5756 74.2364 38.8451 75.3911 38.8451C76.0498 38.8451 76.64 38.7638 77.1617 38.6013C77.6835 38.4302 78.1369 38.1865 78.5218 37.87C78.9067 37.5535 79.2189 37.1728 79.4584 36.728C79.7065 36.2747 79.8733 35.7658 79.9588 35.2012L87.1952 35.2525C87.1097 36.3645 86.7975 37.4979 86.2586 38.6526C85.7197 39.7988 84.9542 40.8595 83.9619 41.8346C82.9783 42.8012 81.7594 43.5796 80.3052 44.1698C78.8511 44.76 77.1617 45.0551 75.2371 45.0551C72.825 45.0551 70.6609 44.5376 68.7449 43.5026C66.8374 42.4676 65.3277 40.945 64.2157 38.9349C63.1123 36.9248 62.5605 34.4656 62.5605 31.5573C62.5605 28.632 63.1251 26.1685 64.2542 24.1669C65.3833 22.1568 66.9058 20.6385 68.8219 19.6121C70.7379 18.5771 72.8763 18.0596 75.2371 18.0596C76.8966 18.0596 78.4234 18.2862 79.8177 18.7396C81.2119 19.1929 82.4351 19.8558 83.4872 20.7283C84.5393 21.5923 85.3861 22.6572 86.0277 23.9231C86.6692 25.1891 87.0584 26.6389 87.1952 28.2727Z" fill="#09091E"/>
<defs>
<linearGradient id="paint0_linear_998_5521" x1="3.67878" y1="22.1082" x2="35.1258" y2="22.1082" gradientUnits="userSpaceOnUse">
<stop stop-color="#8C8FF5"/>
<stop offset="1" stop-color="white" stop-opacity="0"/>
</linearGradient>
<linearGradient id="paint1_linear_998_5521" x1="14.9464" y1="37.5536" x2="46.3934" y2="37.5536" gradientUnits="userSpaceOnUse">
<stop stop-color="#8C8FF5"/>
<stop offset="1" stop-color="white" stop-opacity="0"/>
</linearGradient>
<clipPath id="clip0_998_5521">
<rect width="50.0563" height="58.3363" fill="white" transform="translate(0 0.662109)"/>
</clipPath>
</defs>
</svg>
